<?xml version="1.0" encoding="utf-8"?>
<!-- Generator: Adobe Illustrator 18.0.0, SVG Export Plug-In . SVG Version: 6.00 Build 0)  -->
<!DOCTYPE svg PUBLIC "-//W3C//DTD SVG 1.1//EN" "http://www.w3.org/Graphics/SVG/1.1/DTD/svg11.dtd">
<svg version="1.1" id="Layer_1" xmlns="http://www.w3.org/2000/svg" xmlns:xlink="http://www.w3.org/1999/xlink" x="0px" y="0px"
	 viewBox="0 0 600 600" enable-background="new 0 0 600 600" xml:space="preserve">
<path fill="#00AEEF" d="M300.6,50.2c-138.1,0-250,111.9-250,250s111.9,250,250,250s250-111.9,250-250S438.7,50.2,300.6,50.2z"/>
<path fill="#FFFFFF" d="M302.3,224.7c2.8,28.5-20.9,52.2-49.4,49.4c-21.1-2.1-38.1-19.1-40.2-40.2c-2.8-28.5,20.9-52.2,49.4-49.4
	C283.2,186.6,300.3,203.7,302.3,224.7z"/>
<path fill="#FFFFFF" d="M378.6,365.8v12c0,2.2,1.8,4,4,4h67c2.2,0,4-1.8,4-4v-12c0-2.2-1.8-4-4-4h-67
	C380.4,361.8,378.6,363.6,378.6,365.8z"/>
<path fill="#FFFFFF" d="M418.4,210.2l1.6,0.7c5.9,2.5,8.8,9.9,6.6,16.4L391,331.2c-2.2,6.5-8.8,9.8-14.7,7.3l-1.6-0.7
	c-5.9-2.5-8.8-9.9-6.6-16.4l35.6-103.9C406,211,412.6,207.7,418.4,210.2z"/>
<rect x="416.5" y="279.6" transform="matrix(0.866 -0.5 0.5 0.866 -107.3962 255.35)" fill="#FFFFFF" width="12.5" height="96.9"/>
<path fill="#FFFFFF" d="M356.6,365.8v12c0,2.2-1.8,4-4,4h-54.5c-2.2,0-4-1.8-4-4v-12c0-2.2,1.8-4,4-4h54.5
	C354.8,361.8,356.6,363.6,356.6,365.8z"/>
<path fill="#FCF8ED" d="M325.4,341.2v3.8c0,5.9-4.8,10.6-10.6,10.6h-68.3l0.1-0.6c-4.4,1-9.1-0.4-12.2-4l-20-23.5L175,381.8H98.2
	c0.5-5.1,2.3-10.1,5.5-14.4l64.7-89.4c9.6-13.4,28.5-16.4,41.9-6.7l5.1,3.7c6.8,5,11,12.4,12.1,20.2c1.5,0.7,3,1.8,4.2,3.2
	l27.1,31.9c0.1,0.2,0.2,0.3,0.3,0.4h55.7C320.6,330.6,325.4,335.3,325.4,341.2z"/>
</svg>
