<?xml version="1.0" encoding="utf-8"?>
<!-- Generator: Adobe Illustrator 18.0.0, SVG Export Plug-In . SVG Version: 6.00 Build 0)  -->
<!DOCTYPE svg PUBLIC "-//W3C//DTD SVG 1.1//EN" "http://www.w3.org/Graphics/SVG/1.1/DTD/svg11.dtd">
<svg version="1.1" id="Layer_1" xmlns="http://www.w3.org/2000/svg" xmlns:xlink="http://www.w3.org/1999/xlink" x="0px" y="0px"
	 viewBox="0 0 600 600" enable-background="new 0 0 600 600" xml:space="preserve">
<path fill="#366680" d="M367.7,366.8c0,32.5-9.9,61.3-25.2,79.3c-7.6,4.1-16.4,6.5-25.8,6.5h-22.3c-9.4,0-18.2-2.4-25.8-6.5
	c-15.3-18-25.2-46.8-25.2-79.3c0-21.4,4.3-41.2,11.6-57.3c11.3-25,29.7-30.1,50.6-30.1c20.9,0,39.3,5.1,50.6,30.1
	C363.4,325.7,367.7,345.5,367.7,366.8z"/>
<path fill="#9EB3BA" d="M248,293.5c-14.2,13-19.8,39.2-19.8,59.8v77.2c-36.3-4.5-70.2-12.3-100.5-22.8v-81.1
	c0-35.5,29-64.5,64.5-64.5c17.7,0,33.9,7.3,45.6,18.9C243.4,286.8,244.8,286,248,293.5z"/>
<path fill="#9EB3BA" d="M363.2,293.5c14.2,13,19.8,39.2,19.8,59.8v77.2c36.3-4.5,70.2-12.3,100.5-22.8v-81.1
	c0-35.5-29-64.5-64.5-64.5c-17.7,0-33.9,7.3-45.6,18.9C367.8,286.8,366.5,286,363.2,293.5z"/>
<ellipse fill="#366680" cx="301.3" cy="205.8" rx="45.4" ry="57.5"/>
<ellipse fill="#9EB3BA" cx="186.1" cy="205.8" rx="41.3" ry="45"/>
<ellipse fill="#9EB3BA" cx="418.2" cy="205.8" rx="41.3" ry="45"/>
</svg>
