<?xml version="1.0" encoding="utf-8"?>
<!-- Generator: Adobe Illustrator 18.0.0, SVG Export Plug-In . SVG Version: 6.00 Build 0)  -->
<!DOCTYPE svg PUBLIC "-//W3C//DTD SVG 1.1//EN" "http://www.w3.org/Graphics/SVG/1.1/DTD/svg11.dtd">
<svg version="1.1" id="Layer_1" xmlns="http://www.w3.org/2000/svg" xmlns:xlink="http://www.w3.org/1999/xlink" x="0px" y="0px"
	 viewBox="0 0 600 600" enable-background="new 0 0 600 600" xml:space="preserve">
<path fill="none" d="M264.5,141.8l-5.7,3.2c1.3-1,2.6-1.9,4.1-2.6C263.4,142.2,263.9,142,264.5,141.8z"/>
<g>
	<path fill="#386B95" d="M456.1,332.7l-119.6-68.4l-18.9,9.1l-10.3,35.3c0,0-2.7,52.3-46.3,8.3c-37.4-37.8,12.8-88,27.8-101.5
		c0-0.2-0.1-0.3-0.1-0.5c0,0,0,0,0-0.1c-1.1-0.2-1.9-0.6-2.5-1.3c-0.4,0-0.7-0.1-1-0.2c-2.5,0.2-5.1,0.3-7.6,0
		c-5.5-0.5-11.3-2.2-16.5-0.7l-5.7,3.2c-0.4,0.3-0.7,0.5-1.1,0.8c-0.1,0.1-0.2,0.1-0.3,0.2l-0.2-0.1l-48.6,27
		c-4.1,2.3-58.7-14-58.7-14l-16.6-4.5l-13.1-3.5h-6.2c0,0-52,90.2-28,138.2l34.3,12l51.7,12.2c0,0,12.7-26.2,37.9-14.7
		c6.5,3,10.3,5.2,12.2,6.9c5.7-7.4,20-17.6,48.2,5.2c26.9-14.8,43.1,20.4,43.1,20.4s13.7-4,24.7,7.3c11,11.3,10,17.3,10,17.3
		l-3.6,12c0.6,0.2,3.6,1.6,6.7,3.1c3.6,1.8,7.4,3.6,7.4,3.6h2.1l-0.3,0.2c0.1,0,0.3,0,0.4,0l15.1-17.6c-0.6-1.2-1.5-2.3-2.5-3.3
		l-18.1-17.2c1.7-1,4-1,5.9,0l34.1,19.3c1.7-0.3,3.3-0.5,4.9-0.7l16.9-21.2c-0.5-0.7-0.9-1.5-1.2-2.3l-36.3-23.5
		c-2.3-1.5-3-4.6-1.5-6.9c1-1.5,2.6-2.3,4.2-2.3c0.9,0,1.9,0.3,2.7,0.8l36.6,23.7c0.7,0.2,1.4,0.6,2,1.3l0.6,0.4
		c0.4-0.1,0.7-0.1,1.1-0.1c1.6,0,3.1,0.2,4.7,0.2l16.1-20.3l1.7-2.1l-1.7-1.4l-3.1-2.4c0,0-1.4-1-2.3-1.6l-39.9-25.3
		c-2.3-1.5-3-4.6-1.5-6.9c1-1.5,2.6-2.3,4.2-2.3c0.9,0,1.8,0.3,2.7,0.8l39.9,25.3c0.2,0.2,0.5,0.3,0.7,0.5c0.4-0.1,0.8-0.1,1.2-0.1
		c0.5,0,1,0.1,1.5,0.2c0.5-0.3,1-0.6,1.6-0.7l15.5-19.6C461.7,337.3,459.3,334.6,456.1,332.7z"/>
	<path fill="#229CCF" d="M535.3,355.5l-10.6,4.5l0,0l-11.5,4.8c-0.5,0.2-1,0.5-1.4,0.9c-9.4,3.3-21.5,6.5-32.4,8.8
		c-13.4,2.8-24.8,4.1-26.7,2.2c-5.5-5.3-2-9.4-2-9.4l9-7.6c0,0,27.3-13,9.3-35.3c-0.9-1.2-1.7-2.3-2.6-3.4l-37-18.6l-76.7-44.7
		c0,0-18.8-9.9-34.3,0c-1,0.6-1.9,1.3-2.9,2.1c-5.3,7.6-9.7,15.7-11.8,24c-0.6,2.4-1.1,4.8-1.3,7.3c-0.8,9-3.1,14.7-6.1,18.2
		c0,0,0,0,0,0c-1.3,1.5-2.7,2.6-4.1,3.4l0,0c-7.9,4.3-17.5-0.9-17.5-0.9c-0.1,0-0.1,0-0.2,0c-0.8,0-1.5-0.6-2.3-1.5
		c-2-0.5-3.6-1.8-4.9-3.7c-0.3-0.1-0.7-0.1-1-0.2c-0.5-0.1-0.9-0.2-1.3-0.4c-2.2-0.8-4-1.9-5.1-3.2c-1.7-1.9-2.3-6-2.1-11v0
		c0.2-6.6,1.7-14.9,3.4-21.8c0.6-2.4,1.2-4.6,1.8-6.5c0.7-2.3,1.5-4.3,2.1-5.7c1.5-3.2,4.4-7,8.3-11.5l0.1-0.1c0,0,0,0,0,0
		c0.4-0.5,0.9-1,1.3-1.5c7-7.1,16-16.5,24.5-25.8c1.9-2.1,3.8-4.1,5.5-6.2c18.3-20.7,36-9.6,38.7-8c0.6,0.4,1.5,1.5,2.5,3.1h0
		c30.9,22.1,34.3,24.5,34.6,24.8c0,0,0,0,0,0c0,0,0,0,0,0c3.1,1.9,2,1.1,4.5,2.8c26.1,17.8,80.5,4,103.6-3.1l11.4-2.9
		C514.1,253.6,541.6,305.6,535.3,355.5z"/>
	<path fill="#229CCF" d="M186.4,413.2l-10.9-8.1c-4-2.9-4.8-8.6-1.9-12.6l12.3-16.6c2.9-4,8.6-4.8,12.6-1.9l10.9,8.1
		c4,2.9,4.8,8.6,1.9,12.6L199,411.4C196,415.3,190.4,416.2,186.4,413.2z"/>
	<path fill="#229CCF" d="M225.1,427.5l-11.4-7.4c-4.2-2.7-5.4-8.3-2.7-12.4l19.6-30.4c2.7-4.2,8.3-5.4,12.4-2.7l11.4,7.4
		c4.2,2.7,5.4,8.3,2.7,12.4l-19.6,30.4C234.8,429,229.2,430.2,225.1,427.5z"/>
	<path fill="#229CCF" d="M265.9,444.1l-14-9c-4.2-2.7-5.4-8.3-2.7-12.4l22.8-35.4c2.7-4.2,8.3-5.4,12.4-2.7l14,9
		c4.2,2.7,5.4,8.3,2.7,12.4l-22.8,35.4C275.7,445.6,270.1,446.8,265.9,444.1z"/>
	<path fill="#229CCF" d="M304.7,464l-13.7-8.9c-4.2-2.7-5.4-8.3-2.7-12.4l19.6-30.4c2.7-4.2,8.3-5.4,12.4-2.7l13.7,8.9
		c4.2,2.7,5.4,8.3,2.7,12.4l-19.6,30.4C314.5,465.5,308.9,466.7,304.7,464z"/>
</g>
</svg>
